<svg xmlns="http://www.w3.org/2000/svg" width="90.861" height="59.236" viewBox="0 0 90.861 59.236">
  <g id="Icones" transform="translate(-0.001 0)">
    <g id="App-Store" transform="translate(0.001 0)">
      <path id="Path" d="M138.377,222.079c.419,1.608.667,3.087,2.417,4.567a14.218,14.218,0,0,1-3.5,3.182,3.894,3.894,0,0,1-4.773-.636c-10.2-8.409-19.075-11.483-26.734-9.707-8.592,2.329-15.169,6.581-19.094,13.366-4.73,8.675-10.288,18.545-13.844,20.528S62,256.045,62,257.487s8.176.658,11.96-.289c11.274-5.066,11.777-17.149,21.481-22.755a11.026,11.026,0,0,0,4.138,4.138c1.454,2.334,1.092,4.667-.636,7a34.1,34.1,0,0,1-6.842,7.956c-1.492.578-2.063,2.075-1.751,4.456v10.82c-.957.14-1.736,1.272-2.069,2.229a22.616,22.616,0,0,0-.4,5.449c.035,1.522-.126,1.631,1.082.644.224-.183.443-.375.657-.578.706-.669.489-.761.782.169.076.242.159.484.246.727.453,1.266.474.878,1.225-.318.879-1.4,1.52-3,2.339-4.62.7-1.378.839-1.151,1.037-2.757a57.045,57.045,0,0,0,.16-8.5c-.05-1.767.777-2.368,1.9-3.671a49.343,49.343,0,0,1,12.458-9.934,34.3,34.3,0,0,0,6.249-5.464c1.254-1.57,1.746-.911,3.943-.265a18.738,18.738,0,0,0,6.2.319,15.992,15.992,0,0,1-1.115,6.843c-1.007.531-4.612.829-4.612,2.543s3.5.8,4.452.639a6.474,6.474,0,0,0,2.9-3.66,25.806,25.806,0,0,1,4.1-5.728,31.682,31.682,0,0,0,11.258-7.2c3.213-3.319,5.1-.773,6.086.2a3.958,3.958,0,0,0,2.865-.8c1.247-.77.824-1.777-.159-2.865a9.24,9.24,0,0,1-1.9-2.292c-.789-1.471-.293-1.506-2-2.645a8.124,8.124,0,0,0-1.991-.951,1.587,1.587,0,0,1-.8-.955,7.079,7.079,0,0,0,2.456-3.492c.176-.732.9-.935-.038-.676a9.9,9.9,0,0,0-3.632,2.619l-.895-.043q-2.455-3.265-4.1-3.978C137.4,219.091,138.216,221.465,138.377,222.079Z" transform="translate(-62.001 -219)" fill="#fff" fill-rule="evenodd"/>
    </g>
  </g>
</svg>
