<svg xmlns="http://www.w3.org/2000/svg" width="55.696" height="36.31" viewBox="0 0 55.696 36.31">
  <g id="Icones" transform="translate(-0.001 0)">
    <g id="App-Store" transform="translate(0.001 0)">
      <path id="Path" d="M108.818,220.887a4.531,4.531,0,0,0,1.482,2.8,8.715,8.715,0,0,1-2.146,1.951,2.387,2.387,0,0,1-2.926-.39c-6.255-5.154-11.692-7.039-16.388-5.95-5.267,1.428-9.3,4.034-11.7,8.193-2.9,5.318-6.306,11.368-8.486,12.583S62,241.708,62,242.591s5.012.4,7.331-.177c6.91-3.105,7.219-10.512,13.167-13.949A6.758,6.758,0,0,0,85.036,231a3.548,3.548,0,0,1-.39,4.292,20.9,20.9,0,0,1-4.194,4.877c-.914.354-1.264,1.272-1.073,2.731v6.632c-.587.086-1.064.78-1.268,1.366a13.863,13.863,0,0,0-.244,3.34c.021.933-.077,1,.663.395.137-.112.271-.23.4-.354.433-.41.3-.467.479.1.047.149.1.3.151.446.278.776.291.538.751-.195.539-.859.932-1.84,1.434-2.832a3.3,3.3,0,0,0,.635-1.69,34.967,34.967,0,0,0,.1-5.213c-.03-1.083.476-1.452,1.162-2.25a30.246,30.246,0,0,1,7.636-6.089,21.028,21.028,0,0,0,3.83-3.349c.768-.963,1.07-.558,2.417-.162a11.486,11.486,0,0,0,3.8.2,9.8,9.8,0,0,1-.683,4.194c-.617.326-2.827.508-2.827,1.559s2.144.49,2.729.392a3.969,3.969,0,0,0,1.78-2.244,15.819,15.819,0,0,1,2.512-3.511,19.42,19.42,0,0,0,6.9-4.413c1.969-2.035,3.126-.474,3.73.122a2.426,2.426,0,0,0,1.756-.487c.764-.472.5-1.089-.1-1.756a5.664,5.664,0,0,1-1.164-1.4c-.483-.9-.179-.923-1.225-1.621a4.979,4.979,0,0,0-1.221-.583.973.973,0,0,1-.487-.585,4.339,4.339,0,0,0,1.506-2.141c.108-.449.554-.573-.023-.414a6.07,6.07,0,0,0-2.226,1.605l-.549-.027a7.658,7.658,0,0,0-2.512-2.438C108.219,219.056,108.719,220.511,108.818,220.887Z" transform="translate(-62.001 -219)" fill="#fff" fill-rule="evenodd"/>
    </g>
  </g>
</svg>
