<svg xmlns="http://www.w3.org/2000/svg" width="27.849" height="33.256" viewBox="0 0 27.849 33.256">
  <path id="Exclusão_3" data-name="Exclusão 3" d="M-15818.05,14691.256a.066.066,0,0,1-.025,0,46.112,46.112,0,0,1-7.238-6.867c-3.051-3.457-6.687-8.426-6.687-12.459a13.836,13.836,0,0,1,4.078-9.848,13.836,13.836,0,0,1,9.848-4.078,13.831,13.831,0,0,1,9.845,4.078,13.836,13.836,0,0,1,4.078,9.848,13.222,13.222,0,0,1-2.035,6.232,39.989,39.989,0,0,1-4.551,6.287C-15814.078,14688.31-15817.573,14691.255-15818.05,14691.256Zm4.787-20.732h0l.948.949a3.719,3.719,0,0,0-1.41,2.908,3.768,3.768,0,0,0,3.767,3.763,3.766,3.766,0,0,0,3.763-3.763,3.766,3.766,0,0,0-3.763-3.763,3.873,3.873,0,0,0-.469.039h0l-.027,0-1.938-1.928h2.439v-2.825l-3.5,1.753-2.7-2.694h-4.152v1.884h3.381l1.88,1.883h-3.378l-3.763,1.884-1.883-1.884h-4.705v1.884h3.759a3.767,3.767,0,0,0-3.759,3.763,3.767,3.767,0,0,0,3.764,3.763,3.768,3.768,0,0,0,3.767-3.763l1.879,1.879h2.825l3.281-5.736Zm3.306,5.737a1.883,1.883,0,0,1-1.884-1.879,1.885,1.885,0,0,1,1.884-1.884,1.883,1.883,0,0,1,1.879,1.884A1.881,1.881,0,0,1-15809.957,14676.261Zm-15.059,0a1.883,1.883,0,0,1-1.884-1.879,1.885,1.885,0,0,1,1.884-1.884,1.885,1.885,0,0,1,1.883,1.884A1.883,1.883,0,0,1-15825.016,14676.261Z" transform="translate(15832.001 -14658)" fill="#8e9096"/>
</svg>
