<svg xmlns="http://www.w3.org/2000/svg" width="27.849" height="33.256" viewBox="0 0 27.849 33.256">
  <g id="Grupo_6371" data-name="Grupo 6371" transform="translate(-37.778 -342.542)">
    <g id="Grupo_6290" data-name="Grupo 6290">
      <path id="Exclusão_2" data-name="Exclusão 2" d="M-15818.05,14691.256a.066.066,0,0,1-.025,0,46.112,46.112,0,0,1-7.238-6.867c-3.051-3.457-6.687-8.426-6.687-12.459a13.836,13.836,0,0,1,4.078-9.848,13.836,13.836,0,0,1,9.848-4.078,13.831,13.831,0,0,1,9.845,4.078,13.836,13.836,0,0,1,4.078,9.848,13.222,13.222,0,0,1-2.035,6.232,39.989,39.989,0,0,1-4.551,6.287C-15814.078,14688.31-15817.573,14691.255-15818.05,14691.256Zm.762-9.861h2.272v3.409h1.137v-3.409h.568v-1.137l-.568-2.841h-9.095l-.568,2.841v1.137h.568v3.409h5.686v-3.408Zm-5.686-5.682v1.137h9.095v-1.137Zm12.687-5.316h2.272v3.409h1.137v-3.409h.568v-1.141l-.568-2.841h-9.095l-.568,2.841v1.141h.568v3.409h5.686v-3.408Zm-13,0h2.273v3.409h1.136v-3.409h.568v-1.141l-.568-2.841h-9.095l-.568,2.841v1.141h.568v3.409h5.686v-3.408Zm7.315-5.686v1.136h9.095v-1.136Zm-13,0v1.136h9.095v-1.136Zm10.549,18.956h-3.408v-2.272h3.408v2.271Zm7-11h-3.413v-2.272h3.413v2.271Zm-13,0h-3.413v-2.272h3.413v2.271Z" transform="translate(15869.779 -14315.458)" fill="#8e9096"/>
    </g>
  </g>
</svg>
