<svg xmlns="http://www.w3.org/2000/svg" width="27.849" height="33.256" viewBox="0 0 27.849 33.256">
  <path id="Exclusão_2" data-name="Exclusão 2" d="M-15818.05,14691.256a.066.066,0,0,1-.025,0,46.112,46.112,0,0,1-7.238-6.867c-3.051-3.457-6.687-8.426-6.687-12.459a13.836,13.836,0,0,1,4.078-9.848,13.836,13.836,0,0,1,9.848-4.078,13.831,13.831,0,0,1,9.845,4.078,13.836,13.836,0,0,1,4.078,9.848,13.222,13.222,0,0,1-2.035,6.232,39.989,39.989,0,0,1-4.551,6.287C-15814.078,14688.31-15817.573,14691.255-15818.05,14691.256Zm.27-20.8a9.01,9.01,0,0,0-9,9c0,1.151.973,2.118,2.812,2.8a18.633,18.633,0,0,0,6.188.932,18.635,18.635,0,0,0,6.188-.932c1.839-.678,2.812-1.645,2.812-2.8A9.01,9.01,0,0,0-15817.78,14670.456Zm0-9a4,4,0,0,0-4,4,4,4,0,0,0,4,4,4.006,4.006,0,0,0,4-4A4.006,4.006,0,0,0-15817.78,14661.457Z" transform="translate(15832.001 -14658)" fill="#fff"/>
</svg>
