<svg xmlns="http://www.w3.org/2000/svg" xmlns:xlink="http://www.w3.org/1999/xlink" width="37" height="37" viewBox="0 0 37 37">
  <defs>
    <linearGradient id="linear-gradient" x1="0.5" x2="0.5" y2="1" gradientUnits="objectBoundingBox">
      <stop offset="0" stop-color="#7755f9"/>
      <stop offset="1" stop-color="#3c2b7d"/>
    </linearGradient>
  </defs>
  <g id="Grupo_6369" data-name="Grupo 6369" transform="translate(-434 -44)">
    <circle id="Elipse_384" data-name="Elipse 384" cx="18.5" cy="18.5" r="18.5" transform="translate(434 44)" fill="url(#linear-gradient)"/>
    <g id="App-Store" transform="translate(436.772 54.033)">
      <path id="Path" d="M87.831,220.041a2.5,2.5,0,0,0,.817,1.545,4.809,4.809,0,0,1-1.184,1.076,1.317,1.317,0,0,1-1.614-.215c-3.451-2.844-6.451-3.884-9.041-3.283a10.065,10.065,0,0,0-6.457,4.52c-1.6,2.934-3.479,6.272-4.682,6.942s-3.668.9-3.668,1.389,2.765.223,4.045-.1c3.813-1.713,3.983-5.8,7.265-7.7a3.729,3.729,0,0,0,1.4,1.4,1.958,1.958,0,0,1-.215,2.368,11.531,11.531,0,0,1-2.314,2.691c-.5.2-.7.7-.592,1.507v3.659c-.324.047-.587.43-.7.754a7.649,7.649,0,0,0-.135,1.843c.012.515-.043.551.366.218.076-.062.15-.127.222-.2.239-.226.165-.257.264.057.026.082.054.164.083.246.153.428.16.3.414-.108.3-.474.514-1.015.791-1.562a1.82,1.82,0,0,0,.351-.932,19.293,19.293,0,0,0,.054-2.876c-.017-.6.263-.8.641-1.241a16.687,16.687,0,0,1,4.213-3.36,11.6,11.6,0,0,0,2.113-1.848c.424-.531.59-.308,1.334-.09a6.337,6.337,0,0,0,2.1.108,5.408,5.408,0,0,1-.377,2.314c-.341.18-1.56.28-1.56.86s1.183.27,1.506.216a2.19,2.19,0,0,0,.982-1.238,8.727,8.727,0,0,1,1.386-1.937,10.714,10.714,0,0,0,3.807-2.435c1.087-1.122,1.725-.261,2.058.067a1.339,1.339,0,0,0,.969-.269c.422-.26.278-.6-.054-.969a3.124,3.124,0,0,1-.642-.775c-.267-.5-.1-.509-.676-.894a2.747,2.747,0,0,0-.673-.322.537.537,0,0,1-.269-.323,2.394,2.394,0,0,0,.831-1.181c.06-.248.306-.316-.013-.229a3.349,3.349,0,0,0-1.228.886l-.3-.015a4.225,4.225,0,0,0-1.386-1.345C87.5,219.031,87.776,219.834,87.831,220.041Z" transform="translate(-62.002 -219)" fill="#fff" fill-rule="evenodd"/>
    </g>
  </g>
</svg>
